<mxfile host="app.diagrams.net" modified="2020-12-21T12:59:01.493Z" agent="5.0 (Windows NT 10.0; Win64; x64) AppleWebKit/537.36 (KHTML, like Gecko) Chrome/87.0.4280.88 Safari/537.36" etag="YtyPO0gGJAzQA8nrjZ9P" version="14.0.4" type="github">
  <diagram id="iYjn84gbydF3m9eiHrol" name="Page-1">
    <mxGraphModel dx="1422" dy="762" grid="1" gridSize="10" guides="1" tooltips="1" connect="1" arrows="1" fold="1" page="1" pageScale="1" pageWidth="827" pageHeight="1169" math="0" shadow="0">
      <root>
        <mxCell id="0" />
        <mxCell id="1" parent="0" />
        <mxCell id="BdOayHVXuTlcWGNxm3zI-1" value="&lt;font style=&quot;font-size: 22px;&quot;&gt;Module-&amp;gt;&lt;br style=&quot;font-size: 22px;&quot;&gt;MaAkte aktivieren&lt;/font&gt;" style="rounded=0;whiteSpace=wrap;html=1;fontSize=22;" vertex="1" parent="1">
          <mxGeometry x="280" y="80" width="210" height="90" as="geometry" />
        </mxCell>
      </root>
    </mxGraphModel>
  </diagram>
</mxfile>
